<?xml version="1.0" encoding="utf-8"?>
<!-- Generator: Adobe Illustrator 18.1.1, SVG Export Plug-In . SVG Version: 6.00 Build 0)  -->
<svg version="1.1" id="Layer_2" xmlns="http://www.w3.org/2000/svg" xmlns:xlink="http://www.w3.org/1999/xlink" x="0px" y="0px"
	 viewBox="381.5 240 197 80" enable-background="new 381.5 240 197 80" xml:space="preserve">
<g>
	<g>
		<path fill="#FDFDFD" d="M389.2,247.2h5v7.2c-0.8,0.2-1.6,0.4-2.4,0.6c-0.8,0.1-1.7,0.2-2.8,0.2c-2.2,0-4-0.7-5.2-2
			s-1.9-3.2-1.9-5.6c0-1.5,0.3-2.9,0.9-4c0.6-1.2,1.5-2,2.7-2.6s2.5-0.9,4.1-0.9c1.6,0,3,0.3,4.4,0.9l-0.7,1.5
			c-1.3-0.6-2.6-0.8-3.8-0.8c-1.8,0-3.2,0.5-4.2,1.6c-1,1.1-1.5,2.5-1.5,4.4c0,2,0.5,3.5,1.5,4.5s2.4,1.5,4.3,1.5c1,0,2-0.1,3-0.4
			v-4.5h-3.3V247.2z"/>
		<path fill="#FDFDFD" d="M406,254.9h-8.2v-14.7h8.2v1.5h-6.5v4.7h6.1v1.5h-6.1v5.4h6.5V254.9z"/>
		<path fill="#FDFDFD" d="M420.7,254.9h-2l-8-12.4h-0.1c0.1,1.5,0.2,2.8,0.2,4v8.4h-1.6v-14.7h1.9l8,12.3h0.1c0-0.2,0-0.8-0.1-1.7
			s-0.1-1.7-0.1-2.1v-8.5h1.6V254.9z"/>
		<path fill="#FDFDFD" d="M433,254.9h-8.2v-14.7h8.2v1.5h-6.5v4.7h6.1v1.5h-6.1v5.4h6.5V254.9z"/>
		<path fill="#FDFDFD" d="M438,248.8v6.1h-1.7v-14.7h4c1.8,0,3.1,0.3,4,1s1.3,1.7,1.3,3.1c0,1.9-1,3.3-3,4l4,6.6h-2l-3.6-6.1H438z
			 M438,247.3h2.3c1.2,0,2.1-0.2,2.7-0.7c0.6-0.5,0.8-1.2,0.8-2.2c0-1-0.3-1.7-0.9-2.1c-0.6-0.4-1.5-0.6-2.8-0.6H438V247.3z"/>
		<path fill="#FDFDFD" d="M458.3,254.9l-1.8-4.7h-5.9l-1.8,4.7H447l5.8-14.8h1.4l5.8,14.8H458.3z M455.9,248.7l-1.7-4.6
			c-0.2-0.6-0.4-1.3-0.7-2.1c-0.1,0.6-0.4,1.4-0.6,2.1l-1.7,4.6H455.9z"/>
		<path fill="#FDFDFD" d="M462,254.9v-14.7h1.7v13.2h6.5v1.6H462z"/>
		<path fill="#FDFDFD" d="M487.4,254.9l-1.8-4.7h-5.9l-1.8,4.7h-1.7l5.8-14.8h1.4l5.8,14.8H487.4z M485,248.7l-1.7-4.6
			c-0.2-0.6-0.4-1.3-0.7-2.1c-0.1,0.6-0.4,1.4-0.6,2.1l-1.7,4.6H485z"/>
		<path fill="#FDFDFD" d="M499.5,251c0,1.3-0.5,2.3-1.4,3c-0.9,0.7-2.2,1.1-3.8,1.1c-1.7,0-3.1-0.2-4-0.7v-1.7
			c0.6,0.3,1.3,0.5,2,0.6c0.7,0.1,1.4,0.2,2.1,0.2c1.1,0,2-0.2,2.6-0.6c0.6-0.4,0.9-1,0.9-1.8c0-0.5-0.1-0.9-0.3-1.3
			c-0.2-0.3-0.5-0.6-1-0.9c-0.5-0.3-1.2-0.6-2.2-0.9c-1.4-0.5-2.3-1.1-2.9-1.7c-0.6-0.7-0.9-1.5-0.9-2.6c0-1.1,0.4-2,1.3-2.7
			s2-1,3.4-1c1.5,0,2.8,0.3,4,0.8l-0.5,1.5c-1.2-0.5-2.4-0.8-3.5-0.8c-0.9,0-1.6,0.2-2.1,0.6c-0.5,0.4-0.8,0.9-0.8,1.6
			c0,0.5,0.1,0.9,0.3,1.3c0.2,0.3,0.5,0.6,1,0.9c0.4,0.3,1.1,0.6,2,0.9c1.5,0.6,2.6,1.1,3.2,1.8C499.2,249.2,499.5,250,499.5,251z"
			/>
		<path fill="#FDFDFD" d="M510.8,251c0,1.3-0.5,2.3-1.4,3c-0.9,0.7-2.2,1.1-3.8,1.1c-1.7,0-3.1-0.2-4-0.7v-1.7
			c0.6,0.3,1.3,0.5,2,0.6c0.7,0.1,1.4,0.2,2.1,0.2c1.1,0,2-0.2,2.6-0.6c0.6-0.4,0.9-1,0.9-1.8c0-0.5-0.1-0.9-0.3-1.3
			c-0.2-0.3-0.5-0.6-1-0.9c-0.5-0.3-1.2-0.6-2.2-0.9c-1.4-0.5-2.3-1.1-2.9-1.7c-0.6-0.7-0.9-1.5-0.9-2.6c0-1.1,0.4-2,1.3-2.7
			c0.9-0.7,2-1,3.4-1c1.5,0,2.8,0.3,4,0.8l-0.5,1.5c-1.2-0.5-2.4-0.8-3.5-0.8c-0.9,0-1.6,0.2-2.1,0.6c-0.5,0.4-0.8,0.9-0.8,1.6
			c0,0.5,0.1,0.9,0.3,1.3c0.2,0.3,0.5,0.6,1,0.9c0.4,0.3,1.1,0.6,2,0.9c1.5,0.6,2.6,1.1,3.2,1.8C510.5,249.2,510.8,250,510.8,251z"
			/>
		<path fill="#FDFDFD" d="M522,254.9h-8.2v-14.7h8.2v1.5h-6.5v4.7h6.1v1.5h-6.1v5.4h6.5V254.9z"/>
		<path fill="#FDFDFD" d="M531.8,254.9l-5-13.1h-0.1c0.1,1,0.1,2.3,0.1,3.7v9.4h-1.6v-14.7h2.6l4.7,12.2h0.1l4.7-12.2h2.6v14.7h-1.7
			v-9.5c0-1.1,0-2.3,0.1-3.5h-0.1l-5,13H531.8z"/>
		<path fill="#FDFDFD" d="M543.9,240.2h4.2c2,0,3.4,0.3,4.2,0.9c0.9,0.6,1.3,1.5,1.3,2.8c0,0.9-0.2,1.6-0.7,2.2
			c-0.5,0.6-1.2,0.9-2.1,1.1v0.1c2.2,0.4,3.4,1.6,3.4,3.5c0,1.3-0.4,2.3-1.3,3.1c-0.9,0.7-2.1,1.1-3.7,1.1h-5.1V240.2z M545.6,246.5
			h2.8c1.2,0,2.1-0.2,2.6-0.6c0.5-0.4,0.8-1,0.8-1.9c0-0.8-0.3-1.4-0.9-1.8c-0.6-0.4-1.5-0.5-2.8-0.5h-2.5V246.5z M545.6,248v5.5
			h3.1c1.2,0,2.1-0.2,2.7-0.7s0.9-1.2,0.9-2.2c0-0.9-0.3-1.6-0.9-2s-1.5-0.6-2.8-0.6H545.6z"/>
		<path fill="#FDFDFD" d="M557.3,254.9v-14.7h1.7v13.2h6.5v1.6H557.3z"/>
		<path fill="#FDFDFD" d="M571.7,247.6l3.9-7.4h1.9l-4.9,9v5.7h-1.7v-5.6l-4.9-9.1h1.9L571.7,247.6z"/>
	</g>
	<g>
		<path fill="#FDFDFD" d="M392.1,285.8l-5.4-17.7h-0.1c0.2,3.6,0.3,6,0.3,7.2v10.5h-4.3v-22.5h6.5l5.3,17.2h0.1l5.7-17.2h6.5v22.5
			h-4.5v-10.7c0-0.5,0-1.1,0-1.7s0.1-2.4,0.2-5.2h-0.1l-5.8,17.7H392.1z"/>
		<path fill="#FDFDFD" d="M425.3,285.8h-13v-22.5h13v3.9h-8.2v5h7.6v3.9h-7.6v5.8h8.2V285.8z"/>
		<path fill="#FDFDFD" d="M430,285.8v-22.5h4.8v18.6h9.1v3.9H430z"/>
		<path fill="#FDFDFD" d="M447.8,263.3h7c3.2,0,5.5,0.5,7,1.4c1.4,0.9,2.2,2.4,2.2,4.3c0,1.3-0.3,2.5-0.9,3.3
			c-0.6,0.9-1.5,1.4-2.5,1.6v0.2c1.4,0.3,2.5,0.9,3.1,1.8c0.6,0.9,0.9,2,0.9,3.5c0,2.1-0.7,3.7-2.2,4.8s-3.5,1.7-6,1.7h-8.4V263.3z
			 M452.6,272.2h2.8c1.3,0,2.2-0.2,2.8-0.6s0.9-1.1,0.9-2c0-0.9-0.3-1.5-0.9-1.9c-0.6-0.4-1.6-0.6-3-0.6h-2.5V272.2z M452.6,276v5.9
			h3.1c1.3,0,2.3-0.3,2.9-0.8c0.6-0.5,0.9-1.3,0.9-2.3c0-1.9-1.3-2.8-4-2.8H452.6z"/>
		<path fill="#FDFDFD" d="M489.5,274.5c0,3.7-0.9,6.6-2.8,8.6c-1.8,2-4.5,3-8,3c-3.5,0-6.1-1-8-3c-1.8-2-2.8-4.9-2.8-8.6
			c0-3.8,0.9-6.6,2.8-8.6c1.9-2,4.5-3,8-3s6.1,1,7.9,3C488.6,267.9,489.5,270.8,489.5,274.5z M473,274.5c0,2.5,0.5,4.4,1.4,5.7
			c1,1.3,2.4,1.9,4.3,1.9c3.8,0,5.7-2.5,5.7-7.6c0-5.1-1.9-7.6-5.7-7.6c-1.9,0-3.3,0.6-4.3,1.9S473,272,473,274.5z"/>
		<path fill="#FDFDFD" d="M512.5,263.3v14.6c0,1.7-0.4,3.1-1.1,4.4c-0.7,1.3-1.8,2.2-3.2,2.9s-3.1,1-5,1c-2.9,0-5.1-0.7-6.8-2.2
			c-1.6-1.5-2.4-3.5-2.4-6.1v-14.5h4.8v13.8c0,1.7,0.3,3,1,3.8c0.7,0.8,1.9,1.2,3.5,1.2c1.6,0,2.7-0.4,3.4-1.2
			c0.7-0.8,1.1-2.1,1.1-3.8v-13.8H512.5z"/>
		<path fill="#FDFDFD" d="M522.8,277.2v8.7H518v-22.5h6.6c3.1,0,5.3,0.6,6.8,1.7s2.2,2.8,2.2,5.1c0,1.3-0.4,2.5-1.1,3.5
			s-1.8,1.8-3.1,2.4c3.4,5.1,5.6,8.3,6.6,9.8h-5.3l-5.4-8.7H522.8z M522.8,273.3h1.5c1.5,0,2.6-0.3,3.3-0.8c0.7-0.5,1.1-1.3,1.1-2.4
			c0-1.1-0.4-1.8-1.1-2.3c-0.7-0.5-1.9-0.7-3.4-0.7h-1.4V273.3z"/>
		<path fill="#FDFDFD" d="M558.8,285.8h-6.1l-9.8-17.1h-0.1c0.2,3,0.3,5.2,0.3,6.4v10.6h-4.3v-22.5h6l9.8,16.9h0.1
			c-0.2-2.9-0.2-5-0.2-6.2v-10.7h4.3V285.8z"/>
		<path fill="#FDFDFD" d="M577.5,285.8h-13v-22.5h13v3.9h-8.2v5h7.6v3.9h-7.6v5.8h8.2V285.8z"/>
	</g>
	<g>
		<path fill="#FDFDFD" d="M398.3,319.7h-16.8v-3.5l6-6.1c1.8-1.8,2.9-3.1,3.5-3.8c0.5-0.7,0.9-1.4,1.2-2s0.4-1.2,0.4-1.9
			c0-1-0.3-1.7-0.8-2.1c-0.5-0.5-1.2-0.7-2.1-0.7c-0.9,0-1.8,0.2-2.7,0.6c-0.9,0.4-1.8,1-2.7,1.8l-2.8-3.3c1.2-1,2.2-1.7,2.9-2.1
			c0.8-0.4,1.6-0.7,2.5-1c0.9-0.2,1.9-0.3,3.1-0.3c1.5,0,2.8,0.3,4,0.8c1.1,0.5,2,1.3,2.7,2.3c0.6,1,1,2.1,1,3.4
			c0,1.1-0.2,2.1-0.6,3.1s-1,2-1.8,3c-0.8,1-2.2,2.5-4.3,4.3l-3.1,2.9v0.2h10.4V319.7z"/>
		<path fill="#FDFDFD" d="M416.6,319.7h-16.8v-3.5l6-6.1c1.8-1.8,2.9-3.1,3.5-3.8c0.5-0.7,0.9-1.4,1.2-2s0.4-1.2,0.4-1.9
			c0-1-0.3-1.7-0.8-2.1s-1.2-0.7-2.1-0.7c-0.9,0-1.8,0.2-2.7,0.6c-0.9,0.4-1.8,1-2.7,1.8l-2.8-3.3c1.2-1,2.2-1.7,2.9-2.1
			c0.8-0.4,1.6-0.7,2.5-1c0.9-0.2,1.9-0.3,3.1-0.3c1.5,0,2.8,0.3,4,0.8c1.1,0.5,2,1.3,2.7,2.3c0.6,1,1,2.1,1,3.4
			c0,1.1-0.2,2.1-0.6,3.1c-0.4,1-1,2-1.8,3c-0.8,1-2.2,2.5-4.3,4.3l-3.1,2.9v0.2h10.4V319.7z"/>
		<path fill="#FDFDFD" d="M437.9,319.7l-5.8-18.8H432c0.2,3.8,0.3,6.4,0.3,7.7v11.2h-4.5v-24h6.9l5.7,18.3h0.1l6-18.3h6.9v24h-4.7
			v-11.4c0-0.5,0-1.2,0-1.9s0.1-2.6,0.2-5.6h-0.1l-6.2,18.8H437.9z"/>
		<path fill="#FDFDFD" d="M473.2,319.7l-1.7-5.7h-8.7l-1.7,5.7h-5.5l8.5-24.1h6.2l8.5,24.1H473.2z M470.3,309.7
			c-1.6-5.2-2.5-8.1-2.7-8.8c-0.2-0.7-0.3-1.2-0.4-1.6c-0.4,1.4-1.4,4.9-3.1,10.4H470.3z"/>
		<path fill="#FDFDFD" d="M488.4,305.6l5-9.9h5.5l-8,14.6v9.3h-5v-9.2l-8-14.8h5.5L488.4,305.6z"/>
		<path fill="#FDFDFD" d="M524,319.7h-16.8v-3.5l6-6.1c1.8-1.8,2.9-3.1,3.5-3.8c0.5-0.7,0.9-1.4,1.2-2s0.4-1.2,0.4-1.9
			c0-1-0.3-1.7-0.8-2.1c-0.5-0.5-1.2-0.7-2.1-0.7c-0.9,0-1.8,0.2-2.7,0.6c-0.9,0.4-1.8,1-2.7,1.8l-2.8-3.3c1.2-1,2.2-1.7,2.9-2.1
			c0.8-0.4,1.6-0.7,2.5-1c0.9-0.2,1.9-0.3,3.1-0.3c1.5,0,2.8,0.3,4,0.8c1.1,0.5,2,1.3,2.7,2.3c0.6,1,1,2.1,1,3.4
			c0,1.1-0.2,2.1-0.6,3.1s-1,2-1.8,3c-0.8,1-2.2,2.5-4.3,4.3l-3.1,2.9v0.2H524V319.7z"/>
		<path fill="#FDFDFD" d="M542.2,307.7c0,4.2-0.7,7.3-2.1,9.3s-3.5,3-6.3,3c-2.8,0-4.8-1-6.3-3.1c-1.4-2.1-2.1-5.1-2.1-9.2
			c0-4.2,0.7-7.4,2-9.4c1.4-2,3.5-3,6.3-3c2.8,0,4.9,1,6.3,3.1C541.5,300.6,542.2,303.6,542.2,307.7z M530.4,307.7
			c0,2.9,0.3,5,0.8,6.3c0.5,1.3,1.4,1.9,2.6,1.9c1.2,0,2-0.6,2.6-1.9c0.5-1.3,0.8-3.4,0.8-6.3c0-2.9-0.3-5.1-0.8-6.3
			c-0.5-1.3-1.4-1.9-2.5-1.9c-1.2,0-2,0.6-2.6,1.9S530.4,304.7,530.4,307.7z"/>
		<path fill="#FDFDFD" d="M556.4,319.7h-5.1v-13.9l0-2.3l0.1-2.5c-0.8,0.8-1.4,1.4-1.8,1.7l-2.8,2.2l-2.4-3.1l7.7-6.2h4.2V319.7z"/>
		<path fill="#FDFDFD" d="M570.9,304.4c2.3,0,4.2,0.7,5.5,2c1.4,1.3,2.1,3.1,2.1,5.3c0,2.7-0.8,4.7-2.5,6.2s-4,2.2-7.1,2.2
			c-2.7,0-4.8-0.4-6.5-1.3v-4.4c0.9,0.5,1.9,0.8,3,1.1c1.1,0.3,2.2,0.4,3.3,0.4c3.1,0,4.6-1.3,4.6-3.8c0-2.4-1.6-3.6-4.8-3.6
			c-0.6,0-1.2,0.1-1.9,0.2c-0.7,0.1-1.3,0.2-1.7,0.4l-2-1.1l0.9-12.2h13v4.3h-8.6l-0.4,4.7l0.6-0.1
			C569.1,304.4,569.9,304.4,570.9,304.4z"/>
	</g>
</g>
</svg>
