<?xml version="1.0" encoding="utf-8"?>
<!-- Generator: Adobe Illustrator 18.1.1, SVG Export Plug-In . SVG Version: 6.00 Build 0)  -->
<svg version="1.1" id="Layer_1" xmlns="http://www.w3.org/2000/svg" xmlns:xlink="http://www.w3.org/1999/xlink" x="0px" y="0px"
	 viewBox="-54 11 150 20" enable-background="new -54 11 150 20" xml:space="preserve">
<g>
	<g>
		<path fill="#F4E30F" d="M-27.8,27.5l0.8-0.1c0.4,0,0.7-0.2,0.7-0.8V14.7l-1.5-0.1v-3.2h8.2c5.5,0,9.1,2.8,9.1,9
			c0,7.5-4.3,10.3-9,10.3h-8.3L-27.8,27.5L-27.8,27.5L-27.8,27.5z M-20.6,26.5h0.8c2.2,0,3.6-1.3,3.6-5.7c0-4.8-1.8-5.4-3.6-5.4
			h-0.8V26.5L-20.6,26.5z"/>
		<path fill="#F4E30F" d="M-7.7,14.7l-1.5-0.1v-3.2h8.7v3.2l-0.9,0.1c-0.4,0.1-0.7,0.2-0.7,0.9v11.8l1.5,0.1v3.2h-8.7v-3.2l0.9-0.1
			c0.6-0.1,0.7-0.2,0.7-0.9C-7.7,26.5-7.7,14.7-7.7,14.7z"/>
		<path fill="#FFFFFF" d="M9.8,13.8c-3.5,0-5.3,2.5-5.3,6.9c0,4.5,1.5,7.4,5.4,7.4c0.6,0,1.5-0.1,2-0.2c0.4-0.1,0.6-0.4,0.6-0.9
			v-2.1l2.6,0.2v4.7c-1.3,0.8-3.3,1.2-5.4,1.2c-5.4,0-8.6-3.3-8.6-9.9C1.2,13.6,5.5,11,9.8,11c1.7,0,3.7,0.4,5.3,1.1v4.6l-2.6,0.2
			v-2c0-0.5-0.1-0.7-0.4-0.9C11.4,13.9,10.5,13.8,9.8,13.8z"/>
		<path fill="#FFFFFF" d="M24.8,31c-4.9,0-7.8-3.4-7.8-10c0-7.5,4.2-10,8-10c4,0,7.6,2.6,7.6,10C32.8,27.6,29.7,31,24.8,31z
			 M25.1,28c3.4,0,4.3-3.4,4.3-6.9c0-3-0.8-7.1-4.4-7.1c-3.4,0-4.5,3.4-4.5,6.9C20.5,24.2,21.3,28,25.1,28z"/>
		<path fill="#FFFFFF" d="M51.1,30.6h-3.2l-8-14h-0.1v11.6l1.5,0.1v2.3h-6.2v-2.2l0.8-0.1c0.4-0.1,0.7-0.2,0.7-0.8V13.7l-1.4-0.1
			v-2.3h4.9l7.8,13.8H48V13.7l-1.5-0.1v-2.3h6.1v2.2l-0.8,0.1c-0.6,0.1-0.7,0.2-0.7,0.9L51.1,30.6L51.1,30.6z"/>
		<path fill="#FFFFFF" d="M54.6,28.5l0.8-0.1c0.6-0.1,0.7-0.2,0.7-0.9V13.8l-1.4-0.1v-2.3h13v4.5L65.1,16v-1.3
			c0-0.6-0.1-0.8-0.7-0.8h-5v5.7h6.8v2.7h-6.8v5.9l2.1,0.1v2.3h-6.9L54.6,28.5C54.7,28.5,54.6,28.5,54.6,28.5z"/>
		<path fill="#F4E30F" d="M-36.3,11.4v3.2l1.5,0.1l-1.4,7.7h-0.1l-1.9-9.7h-5.4l-2,10.3l-0.1-0.2l-1.2-7.2c-0.1-0.6,0.1-0.9,0.5-0.9
			l0.9-0.1v-3.2H-54v3.2l1.2,0.2l3.5,15.9h2.5l0,0h3.5l2.1-10.5h0.1l2.1,10.5h5.8l3.3-15.1c0.1-0.7,0.4-0.9,0.8-0.9l0.6,0v-3.2
			H-36.3z"/>
	</g>
	<g>
		<path fill="#F4E30F" d="M80.6,30.4h-3.7v-11v-1.8l0.1-2c-0.7,0.7-1,1.1-1.3,1.3l-2.1,1.8l-1.8-2.4l5.7-4.9h3.1V30.4L80.6,30.4z"/>
		<path fill="#F4E30F" d="M90.4,18.2c1.7,0,3.1,0.5,4.1,1.6c1,1,1.5,2.5,1.5,4.3c0,2.1-0.7,3.8-1.9,4.9c-1.2,1.1-3,1.7-5.3,1.7
			c-2,0-3.6-0.3-4.8-1v-3.5c0.7,0.4,1.4,0.7,2.2,0.9c0.8,0.2,1.7,0.3,2.5,0.3c2.2,0,3.5-1,3.5-3c0-1.9-1.2-2.9-3.6-2.9
			c-0.4,0-0.9,0-1.4,0.1c-0.6,0.1-0.9,0.2-1.2,0.3L84.6,21l0.7-9.7h9.6v3.4h-6.4l-0.4,3.7l0.4-0.1C89.1,18.3,89.6,18.2,90.4,18.2z"
			/>
	</g>
</g>
</svg>
