<?xml version="1.0" encoding="utf-8"?>
<!-- Generator: Adobe Illustrator 18.1.1, SVG Export Plug-In . SVG Version: 6.00 Build 0)  -->
<svg version="1.1" id="Layer_1" xmlns="http://www.w3.org/2000/svg" xmlns:xlink="http://www.w3.org/1999/xlink" x="0px" y="0px"
	 viewBox="280 240 400 80" enable-background="new 280 240 400 80" xml:space="preserve">
<g>
	<g>
		<path fill="#EA3939" d="M295.7,240h8.6l38.2,74.5h0.3l37.8-74.5h8.6v80h-6v-73.9H383L345.7,320h-6L302,246.1h-0.3V320h-6
			C295.7,320,295.7,240,295.7,240z"/>
		<path fill="#EA3939" d="M406.1,240h9.1l40.2,74.5h0.3l39.8-74.5h9.1v80h-6.3v-73.9H498L458.7,320h-6.3l-39.6-73.9h-0.3V320h-6.3
			v-80H406.1z"/>
		<path fill="#EA3939" d="M512.1,240h7.2l31.7,35.2l32.4-35.2h7L555,278.9l37.4,41.1H585l-34-37.4L516.9,320h-7.3l37.6-41.1
			L512.1,240z"/>
		<path fill="#EA3939" d="M630.9,315.7h0.3l34.7-75.7h6.2l-37.5,80h-7.2l-37.3-80h6.5L630.9,315.7z"/>
	</g>
	<g>
		<path fill="#F4E30F" d="M348,309.5h-18.8l-7-31.9h-0.5l-6.7,31.9h-19.4L284.1,261l-4.1-0.6v-9.9h27.6v9.8l-2.9,0.4
			c-1.3,0.2-2.1,1.1-1.8,2.8l4,22.6h0.3l6.4-31.3h17.6l6.2,29.7h0.4l4.5-23.6l-5-0.5v-9.8h26.2v9.7l-2.1,0.2
			c-1.5,0.1-2.3,0.8-2.8,2.8L348,309.5z"/>
		<path fill="#F4E30F" d="M365.8,299.8l2.8-0.3c1.4-0.1,2.1-0.7,2.1-2.3v-36.5l-4.8-0.4v-9.9h26.7c18.2,0,29.9,8.5,29.9,27.6
			c0,22.9-14.3,31.4-29.6,31.4h-27v-9.6H365.8z M389.3,296.8h2.8c7.5,0,11.8-4.1,11.8-17.5c0-14.6-5.8-16.5-11.7-16.5h-2.9V296.8
			L389.3,296.8z"/>
		<path fill="#F4E30F" d="M431.7,260.6l-4.9-0.4v-9.8h28.7v9.7l-3,0.3c-1.5,0.2-2.1,0.6-2.1,2.7v36.1l4.9,0.4v9.9h-28.7v-9.8l3-0.3
			c1.7-0.2,2.1-0.7,2.1-2.9V260.6z"/>
		<path fill="#F4E30F" d="M489.7,258.1c-11.4,0-17.4,7.7-17.4,21c0,13.7,4.9,22.6,17.9,22.6c2,0,4.8-0.3,6.4-0.7
			c1.4-0.4,1.7-1.2,1.7-2.7V292l8.7,0.6V307c-4.4,2.3-10.9,3.6-17.6,3.6c-18,0-28.3-10-28.3-30.4c0-23.1,13.9-30.8,28-30.8
			c5.6,0,12.4,1.1,17.3,3.5V267l-8.7,0.6v-6.2c0-1.5-0.2-2.2-1.6-2.7C494.6,258.3,491.8,258.1,489.7,258.1z"/>
		<path fill="#F4E30F" d="M539,310.6c-16,0-25.6-10.4-25.6-30.5c0-22.8,13.9-30.7,26.6-30.7c13.4,0,25,8.1,25,30.7
			C565.1,300.3,554.9,310.6,539,310.6z M539.7,301.5c11.1,0,14.1-10.5,14.1-21.1c0-9.1-2.5-21.8-14.4-21.8c-11,0-14.8,10.5-14.8,21
			C524.7,289.8,527,301.5,539.7,301.5z"/>
		<path fill="#F4E30F" d="M625,309.5h-10.4l-26.3-42.9h-0.2v35.6l4.9,0.3v7h-20.3v-6.7l2.9-0.4c1.5-0.2,2.1-0.6,2.1-2.5v-42.2
			l-4.6-0.3v-7H589l25.6,42.2h0.2v-34.9l-4.9-0.3v-7H630v6.7l-2.8,0.3c-1.7,0.3-2.2,0.7-2.2,2.7V309.5z"/>
		<path fill="#F4E30F" d="M636.9,302.8l2.7-0.4c1.8-0.3,2.2-0.6,2.2-2.7v-42l-4.6-0.4v-7H680V264l-8.7,0.7v-4c0-1.7-0.4-2.5-2.3-2.5
			h-16.3v17.5h22.5v8.3h-22.5v18.2l6.7,0.3v7h-22.5L636.9,302.8L636.9,302.8z"/>
	</g>
</g>
</svg>
