<?xml version="1.0" encoding="utf-8"?>
<!-- Generator: Adobe Illustrator 18.1.1, SVG Export Plug-In . SVG Version: 6.00 Build 0)  -->
<svg version="1.1" id="Layer_1" xmlns="http://www.w3.org/2000/svg" xmlns:xlink="http://www.w3.org/1999/xlink" x="0px" y="0px"
	 viewBox="-179 3 400 36" enable-background="new -179 3 400 36" xml:space="preserve">
<g>
	<g>
		<path fill="#FDFDFD" d="M-128.1,32.2h1.8c0.7,0,1.1-0.4,1.1-1.4V9.4l-2.9-0.4V3.4h16c10.9,0,17.8,5,17.8,16
			c0,13.2-8.4,18.2-17.4,18.2h-16L-128.1,32.2L-128.1,32.2L-128.1,32.2z M-114,30.4h1.8c4.4,0,6.9-2.5,6.9-10.3
			c0-8.6-3.3-9.6-6.9-9.6h-1.8V30.4L-114,30.4z"/>
		<path fill="#FDFDFD" d="M-144.8,3.7v5.7l2.9,0.4l-2.5,13.9h-0.4l-3.6-17.5H-159l-6.5,31.7h7.6l4-18.5h0.4l4,18.5h11.3l6.2-26.7
			c0.4-1.1,0.7-1.4,1.8-1.8h1.1V3.7C-129.2,3.7-144.8,3.7-144.8,3.7z"/>
		<path fill="#FDFDFD" d="M-88.9,9.4l-2.9-0.4V3.4h17.1v5.7h-1.8c-0.7,0-1.1,0.4-1.1,1.4v21l2.9,0.4v5.7h-17.1v-5.7h1.8
			c1.1,0,1.1-0.4,1.1-1.8C-88.9,30.4-88.9,9.4-88.9,9.4z"/>
		<path fill="#FDFDFD" d="M-54.4,8c-6.9,0-10.2,4.6-10.2,12.1c0,7.8,2.9,13.2,10.5,13.2c1.1,0,2.9,0,3.6-0.4
			c0.7-0.4,1.1-0.7,1.1-1.4V28l5.1,0.4v8.6c-2.5,1.1-6.2,1.8-10.2,1.8c-10.5,0-16.7-5.7-16.7-17.8C-71.1,7.3-62.7,3-54.4,3
			c3.3,0,7.3,0.7,10.2,2.1v8.2l-5.4,0.4v-3.6c0-0.7,0-1.4-1.1-1.4C-51.5,8.3-52.9,8-54.4,8z"/>
		<path fill="#FDFDFD" d="M-25,38.6c-9.4,0-15.3-6.1-15.3-17.8c0-13.2,8.4-17.8,16-17.8c8,0,14.9,4.6,14.9,17.8
			C-9.3,32.6-15.5,38.6-25,38.6z M-24.6,33.3c6.5,0,8.4-6.1,8.4-12.1c0-5.3-1.5-12.8-8.7-12.8c-6.5,0-8.7,6.1-8.7,12.1
			C-33.7,26.5-32.2,33.3-24.6,33.3z"/>
		<path fill="#FDFDFD" d="M26.3,37.9h-6.2L4.5,13l0,0v20.7h2.9v3.9h-12v-3.9l1.8-0.4c0.7,0,1.1-0.4,1.1-1.4V7.3h-2.9V3.4h9.4
			L20.1,28l0,0V7.6h-2.9V3.7h12v3.9h-1.8c-1.1,0-1.5,0.4-1.5,1.4v28.9H26.3z"/>
		<path fill="#FDFDFD" d="M33.2,34l1.5-0.4c1.1,0,1.5-0.4,1.5-1.4V7.6l-2.9-0.4V3.4h25.4v7.8l-5.1,0.7V9.4c0-1.1-0.4-1.4-1.5-1.4
			h-9.4v10.3h13.4v5H42.6V34h4v3.9H33.2V34L33.2,34z"/>
		<path fill="#8E8E8E" d="M-132.1,11.2c0.4-1.1,0.7-1.4,1.8-1.8h1.1V3.7h-15.6v5.7l2.9,0.4l-2.5,13.9l0,0l3.3,14.6h2.9L-132.1,11.2z
			"/>
		<g>
			<path fill="#FDFDFD" d="M-165.6,11.2c0-1.1,0.4-1.4,1.1-1.8l1.8-0.4V3.4H-179v5.7l2.5,0.4l6.9,28.2h4l2.9-13.5l0,0L-165.6,11.2z"
				/>
		</g>
		<g>
			<polygon fill="#8E8E8E" points="-159,6.2 -162.7,24.4 -163,24.4 -165.9,37.9 -158.3,37.9 -154.3,19.4 -153.9,19.4 -151.4,6.2 			
				"/>
		</g>
		<path fill="#8E8E8E" d="M-112.2,3.7h-1.8v7.1h1.8c3.6,0,6.9,1.1,6.9,9.6c0,7.8-2.5,10.3-6.9,10.3h-1.5v7.5h2.2
			c9.1,0,17.4-5,17.4-18.2C-94.3,8.7-101.3,3.7-112.2,3.7z"/>
		<g>
			<path fill="#8E8E8E" d="M82.2,37.2h-6.9V18v-3.2v-3.6c-1.1,1.1-1.8,1.8-2.2,2.1l-3.6,3.2l-3.3-4.3l10.2-8.6h5.4L82.2,37.2
				L82.2,37.2z"/>
			<path fill="#8E8E8E" d="M99.7,15.8c2.9,0,5.4,0.7,7.3,2.9c1.8,1.8,2.5,4.3,2.5,7.5c0,3.6-1.1,6.8-3.3,8.6
				c-2.2,1.8-5.4,2.9-9.4,2.9c-3.6,0-6.5-0.4-8.7-1.8v-6.1c1.1,0.7,2.5,1.1,4,1.4c1.5,0.4,2.9,0.4,4.4,0.4c4,0,6.2-1.8,6.2-5.3
				c0-3.2-2.2-5-6.5-5c-0.7,0-1.5,0-2.5,0s-1.5,0.4-2.2,0.4l-2.2-0.7l1.1-17.1h17.4v6.1H96l-0.7,6.4H96
				C97.5,16.2,98.2,15.8,99.7,15.8z"/>
		</g>
		<g>
			<g>
				<path fill="#FDFDFD" d="M136,6.6h2.2v3.2c-0.4,0-0.7,0-1.1,0.4c-0.4,0-0.7,0-1.1,0c-1.1,0-1.8-0.4-2.2-0.7
					c-0.4-0.7-0.7-1.4-0.7-2.5c0-0.7,0-1.4,0.4-1.8c0.4-0.4,0.7-0.7,1.1-1.1c0.4-0.4,1.1-0.4,1.8-0.4c0.7,0,1.5,0,1.8,0.4l-0.4,0.7
					c-0.7-0.4-1.1-0.4-1.8-0.4c-0.7,0-1.5,0.4-1.8,0.7c-0.4,0.4-0.7,1.1-0.7,1.8s0.4,1.4,0.7,2.1c0.4,0.4,1.1,0.7,1.8,0.7
					c0.4,0,0.7,0,1.5,0V7.6H136V6.6L136,6.6z"/>
				<path fill="#FDFDFD" d="M143.6,10.1H140V3.7h3.6v0.7h-2.9v2.1h2.5v0.7h-2.5v2.5h2.9V10.1z"/>
				<path fill="#FDFDFD" d="M150.2,10.1h-0.7l-3.6-5.3l0,0c0,0.7,0,1.1,0,1.8v3.6h-0.7V3.7h0.7l3.6,5.3l0,0c0,0,0-0.4,0-0.7
					c0-0.4,0-0.7,0-1.1V3.7h0.7V10.1L150.2,10.1z"/>
				<path fill="#FDFDFD" d="M155.6,10.1H152V3.7h3.6v0.7h-2.9v2.1h2.5v0.7h-2.5v2.5h2.9V10.1z"/>
				<path fill="#FDFDFD" d="M157.8,7.3v2.9h-0.7V3.7h1.8c0.7,0,1.5,0,1.8,0.4c0.4,0.4,0.7,0.7,0.7,1.4c0,0.7-0.4,1.4-1.5,1.8
					l1.8,2.9h-0.7l-1.5-2.5C159.2,7.3,157.8,7.3,157.8,7.3z M157.8,6.6h1.1c0.4,0,1.1,0,1.1-0.4c0-0.4,0.4-0.4,0.4-1.1
					c0-0.4,0-0.7-0.4-1.1c-0.4,0-0.7-0.4-1.1-0.4h-1.1V6.6z"/>
				<path fill="#FDFDFD" d="M166.9,10.1L166.1,8h-2.5l-0.7,2.1h-0.7l2.5-6.4h0.7l2.5,6.4H166.9z M165.8,7.3l-0.7-2.1
					c0-0.4,0-0.7-0.4-1.1c0,0.4,0,0.7-0.4,1.1l-0.7,2.1H165.8z"/>
				<path fill="#FDFDFD" d="M168.7,10.1V3.7h0.7v5.7h2.9v0.7H168.7L168.7,10.1z"/>
				<path fill="#FDFDFD" d="M179.9,10.1L179.2,8h-2.5l-1.1,2.1h-0.7l2.5-6.4h0.7l2.5,6.4H179.9z M178.9,7.3l-0.7-2.1
					c0-0.4,0-0.7-0.4-1.1c0,0.4,0,0.7-0.4,1.1l-0.7,2.1H178.9z"/>
				<path fill="#FDFDFD" d="M185.4,8.3c0,0.7-0.4,1.1-0.7,1.4c-0.4,0.4-1.1,0.4-1.8,0.4c-0.7,0-1.5,0-1.8-0.4V9.1
					c0.4,0,0.7,0.4,0.7,0.4c0.4,0,0.7,0,1.1,0c0.4,0,0.7,0,1.1-0.4c0.4,0,0.4-0.4,0.4-0.7c0-0.4,0-0.4,0-0.7l-0.4-0.4
					c-0.4,0-0.4-0.4-1.1-0.4c-0.7-0.4-1.1-0.4-1.5-0.7C181,5.9,181,5.5,181,5.1c0-0.4,0-0.7,0.7-1.1c0.4-0.4,0.7-0.4,1.5-0.4
					c0.7,0,1.1,0,1.8,0.4l-0.4,0.7c-0.4-0.4-1.1-0.4-1.5-0.4c-0.4,0-0.7,0-1.1,0.4c-0.4,0-0.4,0.4-0.4,0.7c0,0.4,0,0.4,0,0.7
					l0.4,0.4c0,0,0.4,0.4,0.7,0.4c0.7,0.4,1.1,0.4,1.5,0.7C185.4,7.6,185.4,8,185.4,8.3z"/>
				<path fill="#FDFDFD" d="M190.5,8.3c0,0.7-0.4,1.1-0.7,1.4c-0.4,0.4-1.1,0.4-1.8,0.4c-0.7,0-1.5,0-1.8-0.4V9.1
					c0.4,0,0.7,0.4,0.7,0.4c0.4,0,0.7,0,1.1,0c0.4,0,0.7,0,1.1-0.4c0.4,0,0.4-0.4,0.4-0.7c0-0.4,0-0.4,0-0.7L189,7.3
					c-0.4,0-0.4-0.4-1.1-0.4c-0.7-0.4-1.1-0.4-1.5-0.7c-0.4-0.4-0.4-0.7-0.4-1.1c0-0.4,0-0.7,0.7-1.1c0.4-0.4,0.7-0.4,1.5-0.4
					c0.7,0,1.1,0,1.8,0.4l-0.4,0.7c-0.4-0.4-1.1-0.4-1.5-0.4c-0.4,0-0.7,0-1.1,0.4c-0.4,0-0.4,0.4-0.4,0.7c0,0.4,0,0.4,0,0.7
					l0.4,0.4c0,0,0.4,0.4,0.7,0.4c0.7,0.4,1.1,0.4,1.5,0.7C190.1,7.6,190.5,8,190.5,8.3z"/>
				<path fill="#FDFDFD" d="M195.6,10.1h-3.6V3.7h3.6v0.7h-2.9v2.1h2.5v0.7h-2.5v2.5h2.9C195.6,9.8,195.6,10.1,195.6,10.1z"/>
				<path fill="#FDFDFD" d="M199.9,10.1l-2.2-5.7l0,0c0,0.4,0,1.1,0,1.8v3.9H197V3.7h1.1l2.2,5.3l0,0l2.2-5.3h1.1v6.4h-1.1V5.9
					c0-0.4,0-1.1,0-1.4l0,0l-2.2,5.7H199.9z"/>
				<path fill="#FDFDFD" d="M205,3.7h1.8c0.7,0,1.5,0,1.8,0.4c0.4,0.4,0.7,0.7,0.7,1.1c0,0.4,0,0.7-0.4,1.1c0,0.4-0.4,0.4-0.7,0.4
					l0,0c1.1,0,1.5,0.7,1.5,1.4c0,0.7,0,1.1-0.7,1.4c-0.4,0.4-1.1,0.4-1.8,0.4H205L205,3.7L205,3.7z M206.1,6.2h1.1
					c0.4,0,1.1,0,1.1-0.4c0.4,0,0.4-0.4,0.4-0.7c0-0.4,0-0.7-0.4-0.7s-0.7-0.4-1.1-0.4h-1.1V6.2L206.1,6.2z M206.1,6.9v2.5h1.5
					c0.4,0,1.1,0,1.1-0.4C209,8.7,209,8.7,209,8c0-0.4,0-0.7-0.4-0.7s-0.7-0.4-1.1-0.4H206.1z"/>
				<path fill="#FDFDFD" d="M211.2,10.1V3.7h0.7v5.7h2.9v0.7H211.2L211.2,10.1z"/>
				<path fill="#FDFDFD" d="M217.7,6.9l1.8-3.2h0.7l-2.2,3.9v2.5h-0.7V7.6l-2.2-3.9h0.7L217.7,6.9z"/>
			</g>
			<g>
				<path fill="#FDFDFD" d="M137.4,23.7l-2.5-7.8l0,0c0,1.4,0,2.5,0,3.2v4.6h-1.8v-10h2.9l2.5,7.5l0,0l2.5-7.5h2.9v10h-2.2V19
					c0-0.4,0-0.4,0-0.7c0-0.4,0-1.1,0-2.1l0,0l-2.5,7.8L137.4,23.7L137.4,23.7z"/>
				<path fill="#FDFDFD" d="M152.3,23.7h-5.8v-10h5.8v1.8h-3.6v2.1h3.3v1.8h-3.3v2.5h3.6V23.7z"/>
				<path fill="#FDFDFD" d="M154.2,23.7v-10h2.2v8.2h4v1.8H154.2z"/>
				<path fill="#FDFDFD" d="M162.1,13.7h3.3c1.5,0,2.5,0.4,3.3,0.7s1.1,1.1,1.1,1.8c0,0.7,0,1.1-0.4,1.4c-0.4,0.4-0.7,0.7-1.1,0.7
					l0,0c0.7,0,1.1,0.4,1.5,0.7c0,0.7,0,1.1,0,1.8c0,1.1-0.4,1.8-1.1,2.1c-0.7,0.4-1.5,0.7-2.5,0.7h-3.6L162.1,13.7L162.1,13.7z
					 M164.3,17.6h1.1c0.7,0,1.1,0,1.1-0.4c0.4,0,0.4-0.4,0.4-0.7c0-0.4,0-0.7-0.4-0.7s-0.7-0.4-1.5-0.4H164L164.3,17.6L164.3,17.6z
					 M164.3,19.4v2.5h1.5c0.7,0,1.1,0,1.5-0.4c0.4-0.4,0.4-0.7,0.4-1.1c0-0.7-0.7-1.1-1.8-1.1C165.8,19.4,164.3,19.4,164.3,19.4z"/>
				<path fill="#FDFDFD" d="M181,18.7c0,1.8-0.4,2.9-1.1,3.9c-0.7,0.7-2.2,1.4-3.6,1.4s-2.5-0.4-3.6-1.4c-0.7-0.7-1.1-2.1-1.1-3.9
					s0.4-2.9,1.1-3.9c0.7-0.7,2.2-1.4,3.6-1.4s2.5,0.4,3.6,1.4C180.3,15.8,181,16.9,181,18.7z M173.4,18.7c0,1.1,0.4,1.8,0.7,2.5
					c0.4,0.7,1.1,0.7,1.8,0.7c1.8,0,2.5-1.1,2.5-3.2s-0.7-3.2-2.5-3.2c-0.7,0-1.5,0.4-1.8,0.7C173.8,16.5,173.4,17.6,173.4,18.7z"/>
				<path fill="#FDFDFD" d="M191.2,13.7v6.4c0,0.7,0,1.4-0.4,1.8c-0.4,0.7-0.7,1.1-1.5,1.4c-0.7,0.4-1.5,0.4-2.2,0.4
					c-1.5,0-2.2-0.4-2.9-1.1c-0.7-0.7-1.1-1.4-1.1-2.5v-6.4h2.2v6.1c0,0.7,0,1.4,0.4,1.8c0.4,0.4,0.7,0.4,1.5,0.4s1.1,0,1.5-0.4
					c0.4-0.4,0.4-1.1,0.4-1.8v-6.1H191.2L191.2,13.7z"/>
				<path fill="#FDFDFD" d="M195.9,19.8v3.9h-2.2v-10h2.9c1.5,0,2.5,0.4,2.9,0.7c0.7,0.4,1.1,1.1,1.1,2.1c0,0.7,0,1.1-0.4,1.4
					c-0.4,0.4-0.7,0.7-1.5,1.1c1.5,2.1,2.5,3.6,2.9,4.3h-2.5l-2.5-3.9h-0.7V19.8z M195.9,18h0.7c0.7,0,1.1,0,1.5-0.4
					c0.4-0.4,0.4-0.7,0.4-1.1c0-0.4,0-0.7-0.4-1.1c-0.4-0.4-0.7-0.4-1.5-0.4h-0.7V18L195.9,18z"/>
				<path fill="#FDFDFD" d="M211.9,23.7h-2.5l-4.4-7.5l0,0c0,1.4,0,2.1,0,2.9v4.6h-1.8v-10h2.5l4.4,7.5l0,0c0-1.4,0-2.1,0-2.9v-4.6
					h1.8V23.7z"/>
				<path fill="#FDFDFD" d="M220.3,23.7h-5.8v-10h5.8v1.8h-3.6v2.1h3.3v1.8h-3.3v2.5h3.6V23.7z"/>
			</g>
			<g>
				<path fill="#FDFDFD" d="M140,38.3h-7.6v-1.4l2.5-2.5c0.7-0.7,1.5-1.4,1.5-1.8c0.4-0.4,0.4-0.7,0.4-0.7c0-0.4,0-0.4,0-0.7
					c0-0.4,0-0.7-0.4-1.1c-0.4-0.4-0.4-0.4-1.1-0.4c-0.7,0-0.7,0-1.1,0.4c-0.4,0-0.7,0.4-1.1,0.7l-1.1-1.4c0.4-0.4,1.1-0.7,1.5-1.1
					c0.4,0,0.7-0.4,1.1-0.4c0.4,0,0.7,0,1.5,0c0.7,0,1.1,0,1.8,0.4c0.4,0.4,0.7,0.7,1.1,1.1c0.4,0.4,0.4,1.1,0.4,1.4
					c0,0.4,0,1.1-0.4,1.4c-0.4,0.4-0.4,0.7-0.7,1.4c-0.4,0.4-1.1,1.1-1.8,1.8l-1.5,1.4l0,0h4.7C140,36.5,140,38.3,140,38.3z"/>
				<path fill="#FDFDFD" d="M148.3,38.3h-7.6v-1.4l2.5-2.5c0.7-0.7,1.5-1.4,1.5-1.8c0.4-0.4,0.4-0.7,0.4-0.7s0-0.4,0-0.7
					c0-0.4,0-0.7-0.4-1.1c-0.4,0-0.4-0.4-1.1-0.4c-0.7,0-0.7,0-1.1,0.4c-0.4,0-0.7,0.4-1.1,0.7l-0.7-1.4c0.4-0.4,1.1-0.7,1.5-1.1
					c0.4,0,0.7-0.4,1.1-0.4s0.7,0,1.5,0s1.1,0,1.8,0.4c0.4,0.4,0.7,0.7,1.1,1.1c0.4,0.4,0.4,1.1,0.4,1.4c0,0.4,0,1.1-0.4,1.4
					s-0.4,0.7-0.7,1.4c-0.4,0.4-1.1,1.1-1.8,1.8l-1.5,1.4l0,0h4.7C148.3,36.5,148.3,38.3,148.3,38.3z"/>
				<path fill="#FDFDFD" d="M157.8,38.3l-2.5-8.2l0,0c0,1.8,0,2.9,0,3.2v5h-2.2V28h2.9l2.5,7.8l0,0l2.5-7.8h2.9v10.3h-1.5v-5
					c0-0.4,0-0.4,0-0.7c0-0.4,0-1.1,0-2.5l0,0l-2.9,8.2C160,38.3,157.8,38.3,157.8,38.3z"/>
				<path fill="#FDFDFD" d="M173.8,38.3l-0.7-2.5h-4l-0.7,2.5h-2.5l3.6-10.7h2.9l3.6,10.7H173.8z M172.3,34
					c-0.7-2.1-1.1-3.6-1.1-3.9s0-0.4,0-0.7c0,0.7-0.7,2.1-1.5,4.6C169.8,34,172.3,34,172.3,34z"/>
				<path fill="#FDFDFD" d="M180.3,32.2l2.2-4.3h2.5l-3.6,6.4v3.9h-2.2v-3.9l-3.6-6.4h2.5L180.3,32.2z"/>
				<path fill="#FDFDFD" d="M196.3,38.3h-7.6v-1.4l2.5-2.5c0.7-0.7,1.5-1.4,1.5-1.8c0.4-0.4,0.4-0.7,0.4-0.7c0-0.4,0-0.4,0-0.7
					c0-0.4,0-0.7-0.4-1.1c-0.4-0.4-0.4-0.4-1.1-0.4c-0.4,0-0.7,0-1.1,0.4c-0.4,0-0.7,0.4-1.1,0.7l-1.1-1.4c0.4-0.4,1.1-0.7,1.5-1.1
					c0.4,0,0.7-0.4,1.1-0.4c0.4,0,0.7,0,1.5,0c0.7,0,1.1,0,1.8,0.4c0.4,0.4,0.7,0.7,1.1,1.1c0.4,0.4,0.4,1.1,0.4,1.4
					c0,0.4,0,1.1-0.4,1.4s-0.4,0.7-0.7,1.4c-0.4,0.4-1.1,1.1-1.8,1.8l-1.1,1.1l0,0h4.7V38.3z"/>
				<path fill="#FDFDFD" d="M204.3,33.3c0,1.8-0.4,3.2-1.1,3.9c-0.7,0.7-1.5,1.4-2.9,1.4c-1.1,0-2.2-0.4-2.9-1.4
					c-0.7-1.1-1.1-2.1-1.1-3.9c0-1.8,0.4-3.2,0.7-4.3c0.7-0.7,1.5-1.4,2.9-1.4c1.1,0,2.2,0.4,2.9,1.4
					C204.3,30.1,204.3,31.5,204.3,33.3z M199.2,33.3c0,1.4,0,2.1,0.4,2.9c0.4,0.7,0.7,0.7,1.1,0.7c0.4,0,0.7-0.4,1.1-0.7
					c0.4-0.7,0.4-1.4,0.4-2.9c0-1.4,0-2.1-0.4-2.9c-0.4-0.7-0.7-0.7-1.1-0.7c-0.4,0-0.7,0.4-1.1,0.7
					C199.2,30.8,199.2,31.9,199.2,33.3z"/>
				<path fill="#FDFDFD" d="M210.8,38.3h-2.2v-6.1v-1.1v-1.1c-0.4,0.4-0.7,0.7-0.7,0.7l-1.1,1.1l-1.1-1.4l3.3-2.9h1.8V38.3
					L210.8,38.3z"/>
				<path fill="#FDFDFD" d="M217.4,31.9c1.1,0,1.8,0.4,2.5,0.7c0.7,0.7,1.1,1.4,1.1,2.5c0,1.1-0.4,2.1-1.1,2.9
					c-0.7,0.7-1.8,1.1-3.3,1.1c-1.1,0-2.2,0-2.9-0.7v-1.8c0.4,0.4,0.7,0.4,1.5,0.4c0.4,0,1.1,0,1.5,0c1.5,0,2.2-0.7,2.2-1.8
					c0-1.1-0.7-1.4-2.2-1.4c-0.4,0-0.4,0-0.7,0s-0.7,0-0.7,0l-0.7-0.4l0.4-5.3h5.8v1.8h-4v2.1h0.4C216.3,31.9,216.6,31.9,217.4,31.9
					z"/>
			</g>
		</g>
	</g>
</g>
</svg>
