<?xml version="1.0" encoding="utf-8"?>
<!-- Generator: Adobe Illustrator 18.1.1, SVG Export Plug-In . SVG Version: 6.00 Build 0)  -->
<svg version="1.1" id="Layer_1" xmlns="http://www.w3.org/2000/svg" xmlns:xlink="http://www.w3.org/1999/xlink" x="0px" y="0px"
	 viewBox="-179 -19 400 80" enable-background="new -179 -19 400 80" xml:space="preserve">
<g>
	<g opacity="0.6">
		<path fill="#EA3939" d="M-165.1-19h8.7l38.6,74.5h0.3L-79.3-19h8.7v80h-6.1v-73.9H-77L-114.6,61h-6.1l-38.1-73.9h-0.2V61h-6.1V-19
			z"/>
		<path fill="#EA3939" d="M-53.6-19h9.2l40.6,74.5h0.3L36.7-19h9.2v80h-6.4v-73.9h-0.3L-0.5,61h-6.4l-40-73.9h-0.3V61h-6.4L-53.6-19
			L-53.6-19z"/>
		<path fill="#EA3939" d="M53.4-19h7.3l32,35.2L125.4-19h7.1L96.8,19.9L134.6,61H127L92.7,23.6L58.2,61h-7.4l38-41.1L53.4-19z"/>
		<path fill="#EA3939" d="M173.3,56.7h0.3l35-75.7h6.3L177,61h-7.3L132-19h6.6L173.3,56.7z"/>
	</g>
	<g>
		<path fill="#F4E30F" d="M-93.2,40.8l2.8-0.3c1.4-0.1,2.1-0.7,2.1-2.3V1.7l-4.8-0.4v-9.9h26.7c18.2,0,29.9,8.5,29.9,27.6
			c0,22.9-14.3,31.4-29.6,31.4h-27v-9.6L-93.2,40.8L-93.2,40.8z M-69.7,37.8h2.8c7.5,0,11.8-4.1,11.8-17.5
			c0-14.6-5.8-16.5-11.7-16.5h-2.9L-69.7,37.8L-69.7,37.8z"/>
		<path fill="#F4E30F" d="M-121.7-8.4v9.8l5,0.5l-4.5,23.6h-0.4l-6.2-29.7h-17.6l-11.2,54.7h12.6l6.7-31.9h0.5l7,31.9h18.8
			l10.6-46.2c0.5-2,1.3-2.7,2.8-2.8l2.1-0.2v-9.7C-95.5-8.4-121.7-8.4-121.7-8.4z"/>
		<path fill="#F4E30F" d="M-27.3,1.6l-4.9-0.4v-9.8h28.7v9.7l-3,0.3C-8,1.6-8.6,2-8.6,4.1v36.1l4.9,0.4v9.9h-28.7v-9.8l3-0.3
			c1.7-0.2,2.1-0.7,2.1-2.9V1.6z"/>
		<path fill="#FFFFFF" d="M30.7-0.9c-11.4,0-17.4,7.7-17.4,21c0,13.7,4.9,22.6,17.9,22.6c2,0,4.8-0.3,6.4-0.7
			c1.4-0.4,1.7-1.2,1.7-2.7V33l8.7,0.6V48c-4.4,2.3-10.9,3.6-17.6,3.6c-18,0-28.3-10-28.3-30.4C2.1-1.9,16-9.6,30.1-9.6
			c5.6,0,12.4,1.1,17.3,3.5V8l-8.7,0.6V2.4c0-1.5-0.2-2.2-1.6-2.7C35.6-0.7,32.8-0.9,30.7-0.9z"/>
		<path fill="#FFFFFF" d="M80,51.6c-16,0-25.6-10.4-25.6-30.5C54.4-1.7,68.3-9.6,81-9.6c13.4,0,25,8.1,25,30.7
			C106.1,41.3,95.9,51.6,80,51.6z M80.7,42.5c11.1,0,14.1-10.5,14.1-21.1c0-9.1-2.5-21.8-14.4-21.8c-11,0-14.8,10.5-14.8,21
			C65.7,30.8,68,42.5,80.7,42.5z"/>
		<path fill="#FFFFFF" d="M166,50.5h-10.4L129.3,7.6h-0.2v35.6l4.9,0.3v7h-20.3v-6.7l2.9-0.4c1.5-0.2,2.1-0.6,2.1-2.5V-1.3l-4.6-0.3
			v-7H130l25.6,42.2h0.2V-1.3l-4.9-0.3v-7H171v6.7l-2.8,0.3c-1.7,0.3-2.2,0.7-2.2,2.7V50.5z"/>
		<path fill="#FFFFFF" d="M177.9,43.8l2.7-0.4c1.8-0.3,2.2-0.6,2.2-2.7v-42l-4.6-0.4v-7H221V5l-8.7,0.7v-4c0-1.7-0.4-2.5-2.3-2.5
			h-16.3v17.5h22.5V25h-22.5v18.2l6.7,0.3v7h-22.5V43.8L177.9,43.8z"/>
		<path fill="#F4AA08" d="M-100.4,4.3c0.5-2,1.3-2.7,2.8-2.8l2.1-0.2v-9.7h-26.2v9.8l5,0.5l-4.5,23.6h-0.1l5.3,25h5.1L-100.4,4.3z"
			/>
		<g>
			<path fill="#F4E30F" d="M-156.1,4.5c-0.3-1.7,0.5-2.6,1.8-2.8l2.9-0.4v-9.8H-179v9.9l4.1,0.6l11.5,48.5h6.6l4.8-23.4h-0.1
				L-156.1,4.5z"/>
		</g>
		<g>
			<polygon fill="#F4AA08" points="-145.4,-4.2 -151.8,27.1 -152,27.1 -156.8,50.5 -144,50.5 -137.3,18.6 -137,18.6 -132.3,-4.2 			
				"/>
		</g>
		<path fill="#F4AA08" d="M-66.4-8.6h-3.2V3.8h2.8c5.9,0,11.7,1.9,11.7,16.5c0,13.4-4.3,17.5-11.8,17.5h-2.7v12.6h3.5
			c15.3,0,29.6-8.5,29.6-31.4C-36.5-0.1-48.2-8.6-66.4-8.6z"/>
	</g>
</g>
</svg>
