<?xml version="1.0" encoding="utf-8"?>
<!-- Generator: Adobe Illustrator 18.1.1, SVG Export Plug-In . SVG Version: 6.00 Build 0)  -->
<svg version="1.1" id="Layer_1" xmlns="http://www.w3.org/2000/svg" xmlns:xlink="http://www.w3.org/1999/xlink" x="0px" y="0px"
	 viewBox="-34 16 110 10" enable-background="new -34 16 110 10" xml:space="preserve">
<g>
	<g>
		<path fill="#686868" d="M-20,24.2l0.5,0c0.2,0,0.3-0.1,0.3-0.4v-6l-0.8-0.1v-1.6h4.4c3,0,4.9,1.4,4.9,4.5c0,3.7-2.3,5.1-4.8,5.1
			h-4.4L-20,24.2L-20,24.2L-20,24.2z M-16.1,23.7h0.5c1.2,0,1.9-0.7,1.9-2.9c0-2.4-0.9-2.7-1.9-2.7h-0.5V23.7L-16.1,23.7z"/>
		<path fill="#686868" d="M-24.6,16.2v1.6l0.8,0.1l-0.7,3.9h-0.1l-1-4.9h-2.9l-1.8,8.9h2.1l1.1-5.2h0.1l1.1,5.2h3.1l1.7-7.5
			c0.1-0.3,0.2-0.4,0.5-0.5l0.3,0v-1.6C-20.3,16.2-24.6,16.2-24.6,16.2z"/>
		<path fill="#686868" d="M-9.2,17.8l-0.8-0.1v-1.6h4.7v1.6l-0.5,0c-0.2,0-0.3,0.1-0.3,0.4v5.9l0.8,0.1v1.6H-10v-1.6l0.5,0
			c0.3,0,0.3-0.1,0.3-0.5C-9.2,23.7-9.2,17.8-9.2,17.8z"/>
		<path fill="#686868" d="M0.3,17.4c-1.9,0-2.8,1.3-2.8,3.4c0,2.2,0.8,3.7,2.9,3.7c0.3,0,0.8,0,1-0.1c0.2-0.1,0.3-0.2,0.3-0.4v-1
			l1.4,0.1v2.4C2.4,25.8,1.4,26,0.3,26c-2.9,0-4.6-1.6-4.6-5c0-3.8,2.3-5,4.6-5c0.9,0,2,0.2,2.8,0.6v2.3L1.6,19v-1
			c0-0.2,0-0.4-0.3-0.4C1.1,17.5,0.7,17.4,0.3,17.4z"/>
		<path fill="#686868" d="M8.4,26c-2.6,0-4.2-1.7-4.2-5c0-3.7,2.3-5,4.4-5c2.2,0,4.1,1.3,4.1,5C12.7,24.3,11,26,8.4,26z M8.5,24.5
			c1.8,0,2.3-1.7,2.3-3.4c0-1.5-0.4-3.6-2.4-3.6c-1.8,0-2.4,1.7-2.4,3.4C6,22.6,6.4,24.5,8.5,24.5z"/>
		<path fill="#686868" d="M22.5,25.8h-1.7l-4.3-7h0v5.8l0.8,0v1.1h-3.3v-1.1l0.5-0.1c0.2,0,0.3-0.1,0.3-0.4v-6.9l-0.8,0v-1.1h2.6
			l4.2,6.9h0v-5.7l-0.8,0v-1.1h3.3v1.1l-0.5,0c-0.3,0-0.4,0.1-0.4,0.4V25.8z"/>
		<path fill="#686868" d="M24.4,24.7l0.4-0.1c0.3,0,0.4-0.1,0.4-0.4v-6.9l-0.8-0.1v-1.1h7v2.2L30,18.5v-0.7c0-0.3-0.1-0.4-0.4-0.4
			H27v2.9h3.7v1.4H27v3l1.1,0v1.1h-3.7V24.7L24.4,24.7z"/>
		<path fill="#333333" d="M-21.1,18.3c0.1-0.3,0.2-0.4,0.5-0.5l0.3,0v-1.6h-4.3v1.6l0.8,0.1l-0.7,3.9h0l0.9,4.1h0.8L-21.1,18.3z"/>
		<g>
			<path fill="#686868" d="M-30.3,18.3c0-0.3,0.1-0.4,0.3-0.5l0.5-0.1v-1.6H-34v1.6l0.7,0.1l1.9,7.9h1.1l0.8-3.8h0L-30.3,18.3z"/>
		</g>
		<g>
			<polygon fill="#333333" points="-28.5,16.9 -29.5,22 -29.6,22 -30.4,25.8 -28.3,25.8 -27.2,20.6 -27.1,20.6 -26.4,16.9 			"/>
		</g>
		<path fill="#333333" d="M-15.6,16.2h-0.5v2h0.5c1,0,1.9,0.3,1.9,2.7c0,2.2-0.7,2.9-1.9,2.9h-0.4v2.1h0.6c2.5,0,4.8-1.4,4.8-5.1
			C-10.7,17.6-12.6,16.2-15.6,16.2z"/>
		<g>
			<path fill="#333333" d="M37.9,25.6H36v-5.4v-0.9l0-1c-0.3,0.3-0.5,0.5-0.6,0.6l-1,0.9l-0.9-1.2l2.8-2.4h1.5L37.9,25.6L37.9,25.6z
				"/>
			<path fill="#333333" d="M42.7,19.6c0.8,0,1.5,0.2,2,0.8c0.5,0.5,0.7,1.2,0.7,2.1c0,1-0.3,1.9-0.9,2.4c-0.6,0.5-1.5,0.8-2.6,0.8
				c-1,0-1.8-0.1-2.4-0.5v-1.7c0.3,0.2,0.7,0.3,1.1,0.4c0.4,0.1,0.8,0.1,1.2,0.1c1.1,0,1.7-0.5,1.7-1.5c0-0.9-0.6-1.4-1.8-1.4
				c-0.2,0-0.4,0-0.7,0c-0.3,0-0.4,0.1-0.6,0.1L39.8,21l0.3-4.8h4.8v1.7h-3.2l-0.2,1.8l0.2,0C42.1,19.7,42.3,19.6,42.7,19.6z"/>
		</g>
		<g>
			<g>
				<path fill="#686868" d="M52.7,17h0.6v0.9c-0.1,0-0.2,0-0.3,0.1c-0.1,0-0.2,0-0.3,0c-0.3,0-0.5-0.1-0.6-0.2
					c-0.1-0.2-0.2-0.4-0.2-0.7c0-0.2,0-0.4,0.1-0.5c0.1-0.1,0.2-0.2,0.3-0.3c0.1-0.1,0.3-0.1,0.5-0.1c0.2,0,0.4,0,0.5,0.1l-0.1,0.2
					c-0.2-0.1-0.3-0.1-0.5-0.1c-0.2,0-0.4,0.1-0.5,0.2c-0.1,0.1-0.2,0.3-0.2,0.5c0,0.2,0.1,0.4,0.2,0.6c0.1,0.1,0.3,0.2,0.5,0.2
					c0.1,0,0.2,0,0.4,0v-0.6h-0.4L52.7,17L52.7,17z"/>
				<path fill="#686868" d="M54.8,18h-1v-1.8h1v0.2H54v0.6h0.7v0.2H54v0.7h0.8V18z"/>
				<path fill="#686868" d="M56.6,18h-0.2l-1-1.5h0c0,0.2,0,0.3,0,0.5v1h-0.2v-1.8h0.2l1,1.5h0c0,0,0-0.1,0-0.2c0-0.1,0-0.2,0-0.3
					v-1h0.2L56.6,18L56.6,18z"/>
				<path fill="#686868" d="M58.1,18h-1v-1.8h1v0.2h-0.8v0.6h0.7v0.2h-0.7v0.7h0.8V18z"/>
				<path fill="#686868" d="M58.7,17.2V18h-0.2v-1.8H59c0.2,0,0.4,0,0.5,0.1c0.1,0.1,0.2,0.2,0.2,0.4c0,0.2-0.1,0.4-0.4,0.5l0.5,0.8
					h-0.2l-0.4-0.7C59.1,17.2,58.7,17.2,58.7,17.2z M58.7,17H59c0.1,0,0.3,0,0.3-0.1s0.1-0.1,0.1-0.3c0-0.1,0-0.2-0.1-0.3
					c-0.1,0-0.2-0.1-0.3-0.1h-0.3V17z"/>
				<path fill="#686868" d="M61.2,18L61,17.4h-0.7L60.1,18h-0.2l0.7-1.8h0.2l0.7,1.8H61.2z M60.9,17.2l-0.2-0.6c0-0.1,0-0.2-0.1-0.3
					c0,0.1,0,0.2-0.1,0.3l-0.2,0.6H60.9z"/>
				<path fill="#686868" d="M61.7,18v-1.8h0.2v1.6h0.8V18L61.7,18L61.7,18z"/>
				<path fill="#686868" d="M64.8,18l-0.2-0.6h-0.7L63.6,18h-0.2l0.7-1.8h0.2L65,18H64.8z M64.5,17.2l-0.2-0.6c0-0.1,0-0.2-0.1-0.3
					c0,0.1,0,0.2-0.1,0.3l-0.2,0.6H64.5z"/>
				<path fill="#686868" d="M66.3,17.5c0,0.2-0.1,0.3-0.2,0.4C66,18,65.8,18,65.6,18c-0.2,0-0.4,0-0.5-0.1v-0.2
					c0.1,0,0.2,0.1,0.2,0.1c0.1,0,0.2,0,0.3,0c0.1,0,0.2,0,0.3-0.1c0.1,0,0.1-0.1,0.1-0.2c0-0.1,0-0.1,0-0.2c0,0-0.1-0.1-0.1-0.1
					c-0.1,0-0.1-0.1-0.3-0.1c-0.2-0.1-0.3-0.1-0.4-0.2c-0.1-0.1-0.1-0.2-0.1-0.3s0-0.2,0.2-0.3c0.1-0.1,0.2-0.1,0.4-0.1
					c0.2,0,0.3,0,0.5,0.1l-0.1,0.2c-0.1-0.1-0.3-0.1-0.4-0.1c-0.1,0-0.2,0-0.3,0.1c-0.1,0-0.1,0.1-0.1,0.2c0,0.1,0,0.1,0,0.2
					c0,0,0.1,0.1,0.1,0.1c0,0,0.1,0.1,0.2,0.1c0.2,0.1,0.3,0.1,0.4,0.2C66.3,17.3,66.3,17.4,66.3,17.5z"/>
				<path fill="#686868" d="M67.7,17.5c0,0.2-0.1,0.3-0.2,0.4C67.4,18,67.2,18,67,18c-0.2,0-0.4,0-0.5-0.1v-0.2
					c0.1,0,0.2,0.1,0.2,0.1c0.1,0,0.2,0,0.3,0c0.1,0,0.2,0,0.3-0.1c0.1,0,0.1-0.1,0.1-0.2c0-0.1,0-0.1,0-0.2c0,0-0.1-0.1-0.1-0.1
					c-0.1,0-0.1-0.1-0.3-0.1c-0.2-0.1-0.3-0.1-0.4-0.2c-0.1-0.1-0.1-0.2-0.1-0.3s0-0.2,0.2-0.3c0.1-0.1,0.2-0.1,0.4-0.1
					c0.2,0,0.3,0,0.5,0.1l-0.1,0.2c-0.1-0.1-0.3-0.1-0.4-0.1c-0.1,0-0.2,0-0.3,0.1c-0.1,0-0.1,0.1-0.1,0.2c0,0.1,0,0.1,0,0.2
					c0,0,0.1,0.1,0.1,0.1c0,0,0.1,0.1,0.2,0.1c0.2,0.1,0.3,0.1,0.4,0.2C67.6,17.3,67.7,17.4,67.7,17.5z"/>
				<path fill="#686868" d="M69.1,18h-1v-1.8h1v0.2h-0.8v0.6H69v0.2h-0.7v0.7h0.8V18z"/>
				<path fill="#686868" d="M70.3,18l-0.6-1.6h0c0,0.1,0,0.3,0,0.5V18h-0.2v-1.8h0.3l0.6,1.5h0l0.6-1.5h0.3V18H71v-1.2
					c0-0.1,0-0.3,0-0.4h0L70.4,18C70.4,18,70.3,18,70.3,18z"/>
				<path fill="#686868" d="M71.7,16.2h0.5c0.2,0,0.4,0,0.5,0.1c0.1,0.1,0.2,0.2,0.2,0.3c0,0.1,0,0.2-0.1,0.3
					C72.8,17,72.7,17,72.6,17v0c0.3,0,0.4,0.2,0.4,0.4c0,0.2,0,0.3-0.2,0.4c-0.1,0.1-0.3,0.1-0.5,0.1h-0.6L71.7,16.2L71.7,16.2z
					 M72,16.9h0.3c0.1,0,0.3,0,0.3-0.1c0.1,0,0.1-0.1,0.1-0.2c0-0.1,0-0.2-0.1-0.2c-0.1,0-0.2-0.1-0.3-0.1H72L72,16.9L72,16.9z
					 M72,17.1v0.7h0.4c0.1,0,0.3,0,0.3-0.1c0.1-0.1,0.1-0.1,0.1-0.3c0-0.1,0-0.2-0.1-0.2c-0.1,0-0.2-0.1-0.3-0.1H72z"/>
				<path fill="#686868" d="M73.4,18v-1.8h0.2v1.6h0.8V18L73.4,18L73.4,18z"/>
				<path fill="#686868" d="M75.2,17.1l0.5-0.9h0.2l-0.6,1.1V18h-0.2v-0.7l-0.6-1.1h0.2L75.2,17.1z"/>
			</g>
			<g>
				<path fill="#686868" d="M53.1,21.8l-0.7-2.2h0c0,0.4,0,0.7,0,0.9v1.3h-0.5V19h0.8l0.7,2.1h0l0.7-2.1h0.8v2.8h-0.6v-1.3
					c0-0.1,0-0.1,0-0.2c0-0.1,0-0.3,0-0.6h0l-0.7,2.2L53.1,21.8L53.1,21.8z"/>
				<path fill="#686868" d="M57.2,21.8h-1.6V19h1.6v0.5h-1v0.6h0.9v0.5h-0.9v0.7h1V21.8z"/>
				<path fill="#686868" d="M57.7,21.8V19h0.6v2.3h1.1v0.5H57.7z"/>
				<path fill="#686868" d="M59.9,19h0.9c0.4,0,0.7,0.1,0.9,0.2c0.2,0.1,0.3,0.3,0.3,0.5c0,0.2,0,0.3-0.1,0.4
					c-0.1,0.1-0.2,0.2-0.3,0.2v0c0.2,0,0.3,0.1,0.4,0.2C62,20.7,62,20.8,62,21c0,0.3-0.1,0.5-0.3,0.6s-0.4,0.2-0.7,0.2h-1L59.9,19
					L59.9,19z M60.5,20.1h0.3c0.2,0,0.3,0,0.3-0.1c0.1,0,0.1-0.1,0.1-0.2c0-0.1,0-0.2-0.1-0.2c-0.1,0-0.2-0.1-0.4-0.1h-0.3
					L60.5,20.1L60.5,20.1z M60.5,20.6v0.7h0.4c0.2,0,0.3,0,0.4-0.1c0.1-0.1,0.1-0.2,0.1-0.3c0-0.2-0.2-0.3-0.5-0.3
					C60.9,20.6,60.5,20.6,60.5,20.6z"/>
				<path fill="#686868" d="M65.1,20.4c0,0.5-0.1,0.8-0.3,1.1c-0.2,0.2-0.6,0.4-1,0.4s-0.7-0.1-1-0.4c-0.2-0.2-0.3-0.6-0.3-1.1
					c0-0.5,0.1-0.8,0.3-1.1c0.2-0.2,0.6-0.4,1-0.4s0.7,0.1,1,0.4C64.9,19.6,65.1,19.9,65.1,20.4z M63,20.4c0,0.3,0.1,0.5,0.2,0.7
					c0.1,0.2,0.3,0.2,0.5,0.2c0.5,0,0.7-0.3,0.7-0.9c0-0.6-0.2-0.9-0.7-0.9c-0.2,0-0.4,0.1-0.5,0.2C63.1,19.8,63,20.1,63,20.4z"/>
				<path fill="#686868" d="M67.9,19v1.8c0,0.2,0,0.4-0.1,0.5c-0.1,0.2-0.2,0.3-0.4,0.4s-0.4,0.1-0.6,0.1c-0.4,0-0.6-0.1-0.8-0.3
					c-0.2-0.2-0.3-0.4-0.3-0.7V19h0.6v1.7c0,0.2,0,0.4,0.1,0.5c0.1,0.1,0.2,0.1,0.4,0.1s0.3,0,0.4-0.1c0.1-0.1,0.1-0.3,0.1-0.5V19
					L67.9,19L67.9,19z"/>
				<path fill="#686868" d="M69.2,20.7v1.1h-0.6V19h0.8c0.4,0,0.7,0.1,0.8,0.2c0.2,0.1,0.3,0.3,0.3,0.6c0,0.2,0,0.3-0.1,0.4
					c-0.1,0.1-0.2,0.2-0.4,0.3c0.4,0.6,0.7,1,0.8,1.2h-0.7l-0.7-1.1H69.2z M69.2,20.2h0.2c0.2,0,0.3,0,0.4-0.1
					c0.1-0.1,0.1-0.2,0.1-0.3c0-0.1,0-0.2-0.1-0.3c-0.1-0.1-0.2-0.1-0.4-0.1h-0.2L69.2,20.2L69.2,20.2z"/>
				<path fill="#686868" d="M73.6,21.8h-0.7l-1.2-2.1h0c0,0.4,0,0.6,0,0.8v1.3h-0.5V19h0.7l1.2,2.1h0c0-0.4,0-0.6,0-0.8V19h0.5V21.8
					z"/>
				<path fill="#686868" d="M75.9,21.8h-1.6V19h1.6v0.5h-1v0.6h0.9v0.5h-0.9v0.7h1V21.8z"/>
			</g>
			<g>
				<path fill="#686868" d="M53.8,25.9h-2.1v-0.4l0.7-0.7c0.2-0.2,0.4-0.4,0.4-0.5c0.1-0.1,0.1-0.2,0.1-0.2c0-0.1,0-0.1,0-0.2
					c0-0.1,0-0.2-0.1-0.3c-0.1-0.1-0.1-0.1-0.3-0.1s-0.2,0-0.3,0.1c-0.1,0-0.2,0.1-0.3,0.2l-0.3-0.4c0.1-0.1,0.3-0.2,0.4-0.3
					c0.1,0,0.2-0.1,0.3-0.1c0.1,0,0.2,0,0.4,0c0.2,0,0.3,0,0.5,0.1c0.1,0.1,0.2,0.2,0.3,0.3c0.1,0.1,0.1,0.3,0.1,0.4
					c0,0.1,0,0.3-0.1,0.4s-0.1,0.2-0.2,0.4c-0.1,0.1-0.3,0.3-0.5,0.5l-0.4,0.4v0h1.3C53.8,25.4,53.8,25.9,53.8,25.9z"/>
				<path fill="#686868" d="M56.1,25.9H54v-0.4l0.7-0.7c0.2-0.2,0.4-0.4,0.4-0.5c0.1-0.1,0.1-0.2,0.1-0.2s0-0.1,0-0.2
					c0-0.1,0-0.2-0.1-0.3c-0.1,0-0.1-0.1-0.3-0.1s-0.2,0-0.3,0.1c-0.1,0-0.2,0.1-0.3,0.2L54,23.4c0.1-0.1,0.3-0.2,0.4-0.3
					c0.1,0,0.2-0.1,0.3-0.1c0.1,0,0.2,0,0.4,0c0.2,0,0.3,0,0.5,0.1c0.1,0.1,0.2,0.2,0.3,0.3c0.1,0.1,0.1,0.3,0.1,0.4
					c0,0.1,0,0.3-0.1,0.4s-0.1,0.2-0.2,0.4c-0.1,0.1-0.3,0.3-0.5,0.5l-0.4,0.4v0h1.3C56.1,25.4,56.1,25.9,56.1,25.9z"/>
				<path fill="#686868" d="M58.7,25.9L58,23.6h0c0,0.5,0,0.8,0,0.9v1.4h-0.6V23h0.8l0.7,2.2h0l0.7-2.2h0.8v2.9H60v-1.4
					c0-0.1,0-0.1,0-0.2c0-0.1,0-0.3,0-0.7h0l-0.8,2.3C59.3,25.9,58.7,25.9,58.7,25.9z"/>
				<path fill="#686868" d="M63.1,25.9l-0.2-0.7h-1.1l-0.2,0.7h-0.7l1-3h0.8l1,3H63.1z M62.7,24.7c-0.2-0.6-0.3-1-0.3-1.1
					c0-0.1,0-0.1,0-0.2c0,0.2-0.2,0.6-0.4,1.3H62.7z"/>
				<path fill="#686868" d="M64.9,24.2l0.6-1.2h0.7l-1,1.8v1.1h-0.6v-1.1l-1-1.8h0.7L64.9,24.2z"/>
				<path fill="#686868" d="M69.3,25.9h-2.1v-0.4l0.7-0.7c0.2-0.2,0.4-0.4,0.4-0.5c0.1-0.1,0.1-0.2,0.1-0.2c0-0.1,0-0.1,0-0.2
					c0-0.1,0-0.2-0.1-0.3c-0.1-0.1-0.1-0.1-0.3-0.1c-0.1,0-0.2,0-0.3,0.1c-0.1,0-0.2,0.1-0.3,0.2l-0.3-0.4c0.1-0.1,0.3-0.2,0.4-0.3
					c0.1,0,0.2-0.1,0.3-0.1c0.1,0,0.2,0,0.4,0c0.2,0,0.3,0,0.5,0.1c0.1,0.1,0.2,0.2,0.3,0.3c0.1,0.1,0.1,0.3,0.1,0.4
					c0,0.1,0,0.3-0.1,0.4s-0.1,0.2-0.2,0.4c-0.1,0.1-0.3,0.3-0.5,0.5L68,25.4v0h1.3V25.9z"/>
				<path fill="#686868" d="M71.5,24.5c0,0.5-0.1,0.9-0.3,1.1c-0.2,0.2-0.4,0.4-0.8,0.4c-0.3,0-0.6-0.1-0.8-0.4
					c-0.2-0.3-0.3-0.6-0.3-1.1c0-0.5,0.1-0.9,0.2-1.2c0.2-0.2,0.4-0.4,0.8-0.4c0.3,0,0.6,0.1,0.8,0.4C71.5,23.6,71.5,24,71.5,24.5z
					 M70.1,24.5c0,0.4,0,0.6,0.1,0.8c0.1,0.2,0.2,0.2,0.3,0.2c0.1,0,0.2-0.1,0.3-0.2c0.1-0.2,0.1-0.4,0.1-0.8s0-0.6-0.1-0.8
					c-0.1-0.2-0.2-0.2-0.3-0.2c-0.1,0-0.2,0.1-0.3,0.2C70.1,23.8,70.1,24.1,70.1,24.5z"/>
				<path fill="#686868" d="M73.3,25.9h-0.6v-1.7v-0.3l0-0.3c-0.1,0.1-0.2,0.2-0.2,0.2l-0.3,0.3l-0.3-0.4l0.9-0.8h0.5L73.3,25.9
					L73.3,25.9z"/>
				<path fill="#686868" d="M75.1,24.1c0.3,0,0.5,0.1,0.7,0.2c0.2,0.2,0.3,0.4,0.3,0.7c0,0.3-0.1,0.6-0.3,0.8
					c-0.2,0.2-0.5,0.3-0.9,0.3c-0.3,0-0.6,0-0.8-0.2v-0.5c0.1,0.1,0.2,0.1,0.4,0.1c0.1,0,0.3,0,0.4,0c0.4,0,0.6-0.2,0.6-0.5
					c0-0.3-0.2-0.4-0.6-0.4c-0.1,0-0.1,0-0.2,0s-0.2,0-0.2,0l-0.2-0.1l0.1-1.5h1.6v0.5h-1.1l0,0.6l0.1,0
					C74.8,24.1,74.9,24.1,75.1,24.1z"/>
			</g>
		</g>
	</g>
</g>
</svg>
